HIERARCHY
ROOT Hips
{
	OFFSET -0.001795 -0.223333 0.028219
	CHANNELS 6 Xposition Yposition Zposition Zrotation Yrotation Xrotation 
	JOINT LeftUpLeg
	{
		OFFSET 0.069520 -0.091406 -0.006815
		CHANNELS 3 Zrotation Yrotation Xrotation
		JOINT LeftLeg
		{
			OFFSET 0.034277 -0.375199 -0.004496
			CHANNELS 3 Zrotation Yrotation Xrotation
			JOINT LeftFoot
			{
				OFFSET -0.013596 -0.397961 -0.043693
				CHANNELS 3 Zrotation Yrotation Xrotation
				JOINT LeftToe
				{
					OFFSET 0.026358 -0.055791 0.119288
					CHANNELS 3 Zrotation Yrotation Xrotation
					End Site
					{
						OFFSET 0.000000 0.000000 0.000000
					}
				}
			}
		}
	}
	JOINT RightUpLeg
	{
		OFFSET -0.067670 -0.090522 -0.004320
		CHANNELS 3 Zrotation Yrotation Xrotation
		JOINT RightLeg
		{
			OFFSET -0.038290 -0.382569 -0.008850
			CHANNELS 3 Zrotation Yrotation Xrotation
			JOINT RightFoot
			{
				OFFSET 0.015774 -0.398415 -0.042312
				CHANNELS 3 Zrotation Yrotation Xrotation
				JOINT RightToe
				{
					OFFSET -0.025372 -0.048144 0.123348
					CHANNELS 3 Zrotation Yrotation Xrotation
					End Site
					{
						OFFSET 0.000000 0.000000 0.000000
					}
				}
			}
		}
	}
	JOINT Spine
	{
		OFFSET -0.002533 0.108963 -0.026696
		CHANNELS 3 Zrotation Yrotation Xrotation
		JOINT Spine1
		{
			OFFSET 0.005487 0.135180 0.001092
			CHANNELS 3 Zrotation Yrotation Xrotation
			JOINT Spine2
			{
				OFFSET 0.001457 0.052922 0.025425
				CHANNELS 3 Zrotation Yrotation Xrotation
				JOINT Neck
				{
					OFFSET -0.002778 0.213870 -0.042857
					CHANNELS 3 Zrotation Yrotation Xrotation
					JOINT Head
					{
						OFFSET 0.005152 0.064970 0.051349
						CHANNELS 3 Zrotation Yrotation Xrotation
						End Site
						{
							OFFSET 0.000000 0.000000 0.000000
						}
					}
				}
				JOINT LeftShoulder
				{
					OFFSET 0.078845 0.121749 -0.034090
					CHANNELS 3 Zrotation Yrotation Xrotation
					JOINT LeftArm
					{
						OFFSET 0.090977 0.030469 -0.008868
						CHANNELS 3 Zrotation Yrotation Xrotation
						JOINT LeftForeArm
						{
							OFFSET 0.259612 -0.012772 -0.027456
							CHANNELS 3 Zrotation Yrotation Xrotation
							JOINT LeftHand
							{
								OFFSET 0.249234 0.008986 -0.001171
								CHANNELS 3 Zrotation Yrotation Xrotation
								End Site
								{
									OFFSET 0.000000 0.000000 0.000000
								}
							}
						}
					}
				}
				JOINT RightShoulder
				{
					OFFSET -0.081759 0.118833 -0.038615
					CHANNELS 3 Zrotation Yrotation Xrotation
					JOINT RightArm
					{
						OFFSET -0.096012 0.032551 -0.009143
						CHANNELS 3 Zrotation Yrotation Xrotation
						JOINT RightForeArm
						{
							OFFSET -0.253742 -0.013329 -0.021401
							CHANNELS 3 Zrotation Yrotation Xrotation
							JOINT RightHand
							{
								OFFSET -0.255298 0.007772 -0.005559
								CHANNELS 3 Zrotation Yrotation Xrotation
								End Site
								{
									OFFSET 0.000000 0.000000 0.000000
								}
							}
						}
					}
				}
			}
		}
	}
}
MOTION
Frames: 8
Frame Time: 0.050000
-0.015745 0.951408 -0.078642 1.181583 1.600226 12.046108 11.012552 -0.396932 -24.219597 0.294266 -0.603353 14.865192 -6.562491 -7.285940 10.507283 0.000000 0.000000 0.000000 0.731743 2.152445 -21.023569 -11.432752 2.392957 8.695243 -0.246359 -5.747314 13.670463 0.000000 0.000000 0.000000 -2.533061 -0.100554 10.662224 -4.456266 2.036256 0.708607 -12.308427 20.311255 3.570328 13.147739 -23.619375 20.184836 0.000000 0.000000 0.000000 45.148591 -31.099269 7.180419 25.163474 -54.578106 -24.216512 26.652453 -2.394619 -1.207523 0.000000 0.000000 0.000000 -34.979407 35.472298 2.044440 -3.113256 56.732218 1.450034 -1.898536 -10.268081 0.020261 0.000000 0.000000 0.000000 
-0.016245 0.951338 -0.078521 0.784513 1.609477 12.248302 11.171547 -0.373659 -24.337401 0.227413 -0.581955 14.755059 -5.707232 -5.911829 10.224005 0.000000 0.000000 0.000000 1.372597 2.262527 -21.225205 -11.754928 2.443173 8.644316 -0.204098 -5.721946 13.826405 0.000000 0.000000 0.000000 -2.888307 -0.055710 10.964400 -4.791361 2.188156 0.623534 -12.193454 20.320972 2.816640 13.351333 -22.639183 18.571469 0.000000 0.000000 0.000000 45.266920 -29.558539 7.586681 25.976660 -52.852259 -23.696787 27.562882 -0.749682 -1.019854 0.000000 0.000000 0.000000 -35.056285 35.646012 2.164489 -5.141494 60.464356 0.721535 -7.458760 -9.876385 0.527823 0.000000 0.000000 0.000000 
-0.016579 0.951014 -0.077661 0.114407 1.108669 12.483348 11.814158 -0.223829 -24.594160 0.163984 -0.561756 15.069346 -5.130803 -5.020812 10.065948 0.000000 0.000000 0.000000 1.893189 2.373951 -21.423294 -11.390942 2.351693 8.446792 0.044159 -5.341413 13.789460 0.000000 0.000000 0.000000 -3.508917 0.038850 11.147967 -4.731139 2.151819 -0.083312 -11.992289 20.853380 2.478043 13.310109 -21.468804 16.996516 0.000000 0.000000 0.000000 45.139036 -28.269768 7.953078 26.382977 -50.588229 -22.633649 27.848295 0.476330 -0.895897 0.000000 0.000000 0.000000 -34.927703 35.971398 2.287336 -8.466902 64.890613 -0.871899 -14.669970 -11.389956 1.382253 0.000000 0.000000 0.000000 
-0.016804 0.950096 -0.076138 -0.519440 1.074915 12.713167 12.064555 -0.177076 -24.876725 0.502101 -0.643335 15.167955 -4.442950 -3.859575 9.943806 0.000000 0.000000 0.000000 2.445893 2.454840 -21.442721 -11.139703 2.269297 8.181881 0.053756 -5.288855 13.621637 0.000000 0.000000 0.000000 -3.709558 0.071164 11.143804 -5.102763 2.307967 -0.609105 -11.184804 20.596011 1.969715 13.377411 -20.460459 15.639663 0.000000 0.000000 0.000000 44.942494 -27.520598 8.065039 25.350843 -48.516291 -20.662314 27.115812 2.006686 -0.610854 0.000000 0.000000 0.000000 -34.788420 36.520222 2.511724 -12.218399 69.738116 -3.393452 -22.079756 -12.470067 2.361177 0.000000 0.000000 0.000000 
-0.016813 0.949305 -0.074365 -1.219450 0.751873 12.484471 12.471536 -0.075578 -24.574009 1.116744 -0.790983 15.391166 -4.301717 -3.779402 9.662337 0.000000 0.000000 0.000000 3.002545 2.506536 -21.134871 -10.753814 2.203607 8.180259 0.179592 -5.030943 13.358192 0.000000 0.000000 0.000000 -3.757903 0.085448 10.601791 -5.170104 2.338803 -0.739240 -10.702872 20.803168 1.450582 12.877100 -19.912141 15.793701 0.000000 0.000000 0.000000 44.187989 -28.170432 8.099724 24.254270 -46.833061 -19.073596 24.939790 3.661395 -0.227813 0.000000 0.000000 0.000000 -33.296206 38.104294 3.353151 -17.281041 73.356621 -7.506011 -26.201973 -12.966953 2.875077 0.000000 0.000000 0.000000 
-0.016644 0.948104 -0.072909 -1.712933 0.698783 12.110353 12.605737 -0.027744 -24.970886 1.583096 -0.931776 15.985590 -4.248081 -2.989910 11.086587 0.000000 0.000000 0.000000 3.612666 2.564479 -20.901880 -10.853422 2.287837 8.649331 0.149480 -4.990163 12.997766 0.000000 0.000000 0.000000 -3.739275 0.079787 10.519841 -5.389838 2.427853 -1.252087 -9.940802 20.951956 1.560723 13.236320 -19.400318 14.411518 0.000000 0.000000 0.000000 43.676708 -28.476338 8.095272 23.395707 -46.360485 -18.351532 22.541682 6.132995 0.220133 0.000000 0.000000 0.000000 -32.061525 39.005206 3.930528 -21.716487 77.220215 -11.758555 -27.707179 -11.188304 2.519489 0.000000 0.000000 0.000000 
-0.016207 0.946858 -0.072045 -2.089928 0.705809 11.616939 12.751123 0.014262 -25.114006 2.055065 -1.081447 16.564071 -4.523810 -3.007231 12.038088 0.000000 0.000000 0.000000 3.804707 2.581713 -20.796900 -10.455679 2.336002 9.528189 0.039687 -5.051198 12.540417 0.000000 0.000000 0.000000 -3.190109 -0.000384 10.302925 -6.250212 2.824114 -0.981899 -9.205550 20.656683 1.584948 13.256267 -18.761636 13.542085 0.000000 0.000000 0.000000 42.255725 -28.480612 8.099479 23.260209 -47.091367 -18.430839 20.487391 8.600640 0.581123 0.000000 0.000000 0.000000 -30.773206 40.063990 4.620216 -25.915908 79.979598 -16.392628 -26.411436 -9.117740 1.861789 0.000000 0.000000 0.000000 
-0.015441 0.945669 -0.071902 -2.395263 0.623679 11.090731 12.957538 0.081142 -25.417234 2.271684 -1.189873 17.547936 -4.820771 -3.107109 12.899042 0.000000 0.000000 0.000000 3.859569 2.547179 -20.422377 -10.008236 2.301737 9.891166 -0.005146 -5.010655 12.119878 0.000000 0.000000 0.000000 -2.929994 -0.044940 10.497580 -6.510215 2.924274 -1.624557 -8.796624 20.899852 2.118118 14.007524 -18.406722 11.602199 0.000000 0.000000 0.000000 40.672552 -28.977603 8.188005 22.290828 -48.944380 -18.953985 20.270090 9.074228 0.660011 0.000000 0.000000 0.000000 -29.745014 40.171718 4.949279 -26.573542 82.198583 -17.832029 -26.173653 -7.431522 1.428627 0.000000 0.000000 0.000000 
